# xmcd CD database file
#
# Track frame offsets:
#	150
#	9385
#	28053
#	47053
#	56365
#	79818
#	92258
#	98395
#	102978
#	115030
#	180400
#
# Disc length: 2748 seconds
#
# Revision: 0
# Processed by: cddbd v1.5.1PL2 Copyright (c) Steve Scherf et al.
# Submitted via: CDex 1.51
#
DISCID=700aba0b
DTITLE=遠藤賢司 - にゃあ！
DYEAR=2006
DGENRE=????
TTITLE0=宇宙を叩け
TTITLE1=やっぱりあなたの歌じゃなきゃ
TTITLE2=やっと君が僕のことを
TTITLE3=風が吹いて来たね
TTITLE4=死んじゃったお母さんの夢
TTITLE5=どうにかなっちまう
TTITLE6=ビートルズをぶっとばせ！
TTITLE7=風の噂
TTITLE8=黄色い猿
TTITLE9=ド・素人はスッコンデロォ！
TTITLE10=ひとりぽっちの朝
EXTD=YEAR: 2006
EXTT0=
EXTT1=
EXTT2=
EXTT3=
EXTT4=
EXTT5=
EXTT6=
EXTT7=
EXTT8=
EXTT9=
EXTT10=
PLAYORDER=
